<svg width="558" height="161" viewBox="0 0 558 161" fill="none" xmlns="http://www.w3.org/2000/svg">
<rect width="558" height="160.999" rx="12" fill="#E0F0FE"/>
<path opacity="0.1" fill-rule="evenodd" clip-rule="evenodd" d="M94.9433 0L60.6213 94.0145C53.2093 114.318 32.1698 124.197 13.6284 116.081C8.70914 113.927 4.28597 110.618 0.668715 106.392L0 105.589V36.3481C0 23.709 1.2018 19.1258 3.45852 14.5052C5.71524 9.88457 9.02688 6.25827 13.2466 3.78713L13.9136 3.40657C17.9272 1.1811 22.2593 0 33.1941 0H94.9433ZM391.256 130.536L504.699 0H430.828L367.482 112.802C363.669 119.593 365.427 128.48 371.462 132.92C377.71 137.517 386.063 136.511 391.256 130.536ZM352.291 21.4977C363.888 25.5666 370.285 39.1908 366.581 51.9283C365.799 54.6173 364.595 57.1354 363.023 59.3688L293.658 157.925C292.78 159.172 292.418 159.567 291.957 159.947C291.496 160.328 291.008 160.591 290.453 160.759C289.943 160.913 289.475 160.987 288.295 160.998L86.6163 161L295.076 28.3117C312.418 17.2736 333.199 14.7987 352.291 21.4977ZM509.818 76.1308L510.549 76.1802C516.982 76.658 522.957 78.285 536.999 85.1928L557.999 95.594V132.856L557.992 134.35C557.9 143.016 556.98 146.379 555.33 149.769C553.588 153.346 551.031 156.154 547.774 158.068L547.259 158.362C544.161 160.085 540.817 161 532.376 161H411.42L467.104 99.8012C478.862 86.8788 483.958 83.1249 490.225 80.0694C496.492 77.0138 502.972 75.7113 509.818 76.1308ZM149.192 44.8156L210.766 0H150.745L128.983 37.074C128.6 37.7265 128.316 38.4432 128.143 39.1959C127.263 43.0223 129.373 46.9079 132.857 47.8747C138.451 49.4272 144.382 48.3165 149.192 44.8156Z" fill="#071050"/>
<path d="M179.681 100.315C181.384 100.315 182.879 99.4177 183.62 98.0657L182.814 97.6107C182.255 98.7027 181.046 99.4307 179.681 99.4307C177.38 99.4307 175.82 97.7277 175.82 95.6087C175.82 93.4897 177.38 91.7867 179.681 91.7867C181.046 91.7867 182.255 92.5147 182.814 93.6067L183.62 93.1387C182.866 91.7867 181.371 90.9027 179.681 90.9027C176.886 90.9027 174.91 93.0087 174.91 95.6087C174.91 98.2087 176.886 100.315 179.681 100.315ZM185.845 94.7377V93.6587H184.987V100.159H185.845V96.5447C185.845 94.9327 186.859 94.3867 187.899 94.3867V93.5547C187.067 93.5547 186.3 93.8277 185.845 94.7377ZM191.684 93.5027C189.669 93.5027 188.291 94.9977 188.291 96.9087C188.291 98.8717 189.695 100.315 191.749 100.315C193.062 100.315 194.063 99.7037 194.609 98.8197L193.855 98.3777C193.504 99.0017 192.789 99.4827 191.762 99.4827C190.384 99.4827 189.357 98.6637 189.175 97.3377H194.882C194.895 97.2077 194.908 97.0647 194.908 96.9347C194.908 95.1537 193.673 93.5027 191.684 93.5027ZM191.684 94.3347C192.802 94.3347 193.842 95.0757 194.024 96.5057H189.175C189.344 95.2317 190.319 94.3347 191.684 94.3347ZM201.863 91.0587V94.9327C201.317 94.0617 200.394 93.5027 199.237 93.5027C197.404 93.5027 195.883 94.9847 195.883 96.9087C195.883 98.8327 197.404 100.315 199.237 100.315C200.394 100.315 201.317 99.7557 201.863 98.8847V100.159H202.721V91.0587H201.863ZM199.302 99.4827C197.859 99.4827 196.741 98.3517 196.741 96.9087C196.741 95.4657 197.859 94.3347 199.302 94.3347C200.745 94.3347 201.863 95.4657 201.863 96.9087C201.863 98.3517 200.745 99.4827 199.302 99.4827ZM204.967 92.2807C205.318 92.2807 205.591 91.9947 205.591 91.6567C205.591 91.3187 205.318 91.0327 204.967 91.0327C204.616 91.0327 204.343 91.3187 204.343 91.6567C204.343 91.9947 204.616 92.2807 204.967 92.2807ZM204.538 100.159H205.396V93.6587H204.538V100.159ZM210.661 94.4907V93.6587H208.789V91.8387L207.931 92.0987V93.6587H206.566V94.4907H207.931V98.4297C207.931 99.9897 208.906 100.419 210.661 100.159V99.4047C209.4 99.4567 208.789 99.5477 208.789 98.4297V94.4907H210.661ZM214.701 93.5027C212.686 93.5027 211.308 94.9977 211.308 96.9087C211.308 98.8717 212.712 100.315 214.766 100.315C216.079 100.315 217.08 99.7037 217.626 98.8197L216.872 98.3777C216.521 99.0017 215.806 99.4827 214.779 99.4827C213.401 99.4827 212.374 98.6637 212.192 97.3377H217.899C217.912 97.2077 217.925 97.0647 217.925 96.9347C217.925 95.1537 216.69 93.5027 214.701 93.5027ZM214.701 94.3347C215.819 94.3347 216.859 95.0757 217.041 96.5057H212.192C212.361 95.2317 213.336 94.3347 214.701 94.3347ZM224.88 91.0587V94.9327C224.334 94.0617 223.411 93.5027 222.254 93.5027C220.421 93.5027 218.9 94.9847 218.9 96.9087C218.9 98.8327 220.421 100.315 222.254 100.315C223.411 100.315 224.334 99.7557 224.88 98.8847V100.159H225.738V91.0587H224.88ZM222.319 99.4827C220.876 99.4827 219.758 98.3517 219.758 96.9087C219.758 95.4657 220.876 94.3347 222.319 94.3347C223.762 94.3347 224.88 95.4657 224.88 96.9087C224.88 98.3517 223.762 99.4827 222.319 99.4827ZM233.833 100.315C235.731 100.315 237.252 98.8327 237.252 96.9087C237.252 94.9847 235.731 93.5027 233.833 93.5027C231.935 93.5027 230.414 94.9847 230.414 96.9087C230.414 98.8327 231.935 100.315 233.833 100.315ZM233.833 99.4827C232.39 99.4827 231.272 98.3517 231.272 96.9087C231.272 95.4657 232.39 94.3347 233.833 94.3347C235.276 94.3347 236.394 95.4657 236.394 96.9087C236.394 98.3517 235.276 99.4827 233.833 99.4827ZM241.73 93.5027C240.807 93.5027 240.053 93.8537 239.546 94.6727V93.6587H238.688V100.159H239.546V96.7527C239.546 95.0107 240.508 94.3347 241.652 94.3347C242.783 94.3347 243.42 95.0107 243.42 96.1677V100.159H244.278V96.1677C244.278 94.5427 243.316 93.5027 241.73 93.5027ZM248.966 100.315C250.24 100.315 251.345 99.6517 251.878 98.6247L251.163 98.2087C250.747 98.9627 249.954 99.4827 248.966 99.4827C247.523 99.4827 246.405 98.3517 246.405 96.9087C246.405 95.4657 247.523 94.3347 248.966 94.3347C249.941 94.3347 250.76 94.8417 251.111 95.6087L251.813 95.2057C251.345 94.1787 250.253 93.5027 248.966 93.5027C247.003 93.5027 245.547 94.9847 245.547 96.9087C245.547 98.8327 247.003 100.315 248.966 100.315ZM256.049 93.5027C254.034 93.5027 252.656 94.9977 252.656 96.9087C252.656 98.8717 254.06 100.315 256.114 100.315C257.427 100.315 258.428 99.7037 258.974 98.8197L258.22 98.3777C257.869 99.0017 257.154 99.4827 256.127 99.4827C254.749 99.4827 253.722 98.6637 253.54 97.3377H259.247C259.26 97.2077 259.273 97.0647 259.273 96.9347C259.273 95.1537 258.038 93.5027 256.049 93.5027ZM256.049 94.3347C257.167 94.3347 258.207 95.0757 258.389 96.5057H253.54C253.709 95.2317 254.684 94.3347 256.049 94.3347ZM267.333 94.4907V93.6587H265.461V91.8387L264.603 92.0987V93.6587H263.238V94.4907H264.603V98.4297C264.603 99.9897 265.578 100.419 267.333 100.159V99.4047C266.072 99.4567 265.461 99.5477 265.461 98.4297V94.4907H267.333ZM271.805 93.5027C270.882 93.5027 270.128 93.8537 269.621 94.6727V91.0587H268.763V100.159H269.621V96.7527C269.621 95.0107 270.583 94.3347 271.727 94.3347C272.858 94.3347 273.495 95.0107 273.495 96.1677V100.159H274.353V96.1677C274.353 94.5427 273.391 93.5027 271.805 93.5027ZM279.015 93.5027C277 93.5027 275.622 94.9977 275.622 96.9087C275.622 98.8717 277.026 100.315 279.08 100.315C280.393 100.315 281.394 99.7037 281.94 98.8197L281.186 98.3777C280.835 99.0017 280.12 99.4827 279.093 99.4827C277.715 99.4827 276.688 98.6637 276.506 97.3377H282.213C282.226 97.2077 282.239 97.0647 282.239 96.9347C282.239 95.1537 281.004 93.5027 279.015 93.5027ZM279.015 94.3347C280.133 94.3347 281.173 95.0757 281.355 96.5057H276.506C276.675 95.2317 277.65 94.3347 279.015 94.3347ZM288.03 93.6587L285.924 99.1057L283.48 93.6587H282.57L285.482 100.198L285.313 100.601C284.962 101.446 284.377 102.044 283.532 101.953V102.759C284.702 102.85 285.664 102.005 286.158 100.757L288.94 93.6587H288.03ZM300.156 93.5027C299.324 93.5027 298.531 93.8797 298.05 94.6857C297.686 93.9317 296.984 93.5027 296.074 93.5027C295.294 93.5027 294.592 93.8147 294.085 94.6077V93.6587H293.227V100.159H294.085V96.5577C294.085 94.9457 295.021 94.3347 295.957 94.3347C296.88 94.3347 297.478 94.9457 297.478 96.1027V100.159H298.336V96.5577C298.336 94.9457 299.142 94.3347 300.143 94.3347C301.066 94.3347 301.729 94.9457 301.729 96.1027V100.159H302.587V96.1027C302.587 94.4777 301.586 93.5027 300.156 93.5027ZM309.837 93.6587V94.9327C309.291 94.0617 308.368 93.5027 307.211 93.5027C305.378 93.5027 303.857 94.9847 303.857 96.9087C303.857 98.8327 305.378 100.315 307.211 100.315C308.368 100.315 309.291 99.7557 309.837 98.8847V100.159H310.695V93.6587H309.837ZM307.276 99.4827C305.833 99.4827 304.715 98.3517 304.715 96.9087C304.715 95.4657 305.833 94.3347 307.276 94.3347C308.719 94.3347 309.837 95.4657 309.837 96.9087C309.837 98.3517 308.719 99.4827 307.276 99.4827ZM317.763 100.159L314.279 96.7787L317.633 93.6587H316.463L313.369 96.5317V91.0587H312.511V100.159H313.369V97.0257L316.619 100.159H317.763ZM321.291 93.5027C319.276 93.5027 317.898 94.9977 317.898 96.9087C317.898 98.8717 319.302 100.315 321.356 100.315C322.669 100.315 323.67 99.7037 324.216 98.8197L323.462 98.3777C323.111 99.0017 322.396 99.4827 321.369 99.4827C319.991 99.4827 318.964 98.6637 318.782 97.3377H324.489C324.502 97.2077 324.515 97.0647 324.515 96.9347C324.515 95.1537 323.28 93.5027 321.291 93.5027ZM321.291 94.3347C322.409 94.3347 323.449 95.0757 323.631 96.5057H318.782C318.951 95.2317 319.926 94.3347 321.291 94.3347ZM334.719 93.6587V94.9327C334.173 94.0617 333.25 93.5027 332.093 93.5027C330.26 93.5027 328.739 94.9847 328.739 96.9087C328.739 98.8327 330.26 100.315 332.093 100.315C333.25 100.315 334.173 99.7557 334.719 98.8847V100.159H335.577V93.6587H334.719ZM332.158 99.4827C330.715 99.4827 329.597 98.3517 329.597 96.9087C329.597 95.4657 330.715 94.3347 332.158 94.3347C333.601 94.3347 334.719 95.4657 334.719 96.9087C334.719 98.3517 333.601 99.4827 332.158 99.4827ZM344.089 94.4907V93.6587H342.217V91.8387L341.359 92.0987V93.6587H339.994V94.4907H341.359V98.4297C341.359 99.9897 342.334 100.419 344.089 100.159V99.4047C342.828 99.4567 342.217 99.5477 342.217 98.4297V94.4907H344.089ZM346.377 94.7377V93.6587H345.519V100.159H346.377V96.5447C346.377 94.9327 347.391 94.3867 348.431 94.3867V93.5547C347.599 93.5547 346.832 93.8277 346.377 94.7377ZM354.803 93.6587V94.9327C354.257 94.0617 353.334 93.5027 352.177 93.5027C350.344 93.5027 348.823 94.9847 348.823 96.9087C348.823 98.8327 350.344 100.315 352.177 100.315C353.334 100.315 354.257 99.7557 354.803 98.8847V100.159H355.661V93.6587H354.803ZM352.242 99.4827C350.799 99.4827 349.681 98.3517 349.681 96.9087C349.681 95.4657 350.799 94.3347 352.242 94.3347C353.685 94.3347 354.803 95.4657 354.803 96.9087C354.803 98.3517 353.685 99.4827 352.242 99.4827ZM360.52 93.5027C359.597 93.5027 358.843 93.8537 358.336 94.6727V93.6587H357.478V100.159H358.336V96.7527C358.336 95.0107 359.298 94.3347 360.442 94.3347C361.573 94.3347 362.21 95.0107 362.21 96.1677V100.159H363.068V96.1677C363.068 94.5427 362.106 93.5027 360.52 93.5027ZM365.403 95.3617C365.403 94.6597 366.092 94.3347 366.768 94.3347C367.392 94.3347 368.055 94.5817 368.328 95.2447L369.043 94.8287C368.666 94.0227 367.834 93.5027 366.768 93.5027C365.468 93.5027 364.545 94.3217 364.545 95.3617C364.545 97.7537 368.341 96.8307 368.341 98.4427C368.341 99.2097 367.613 99.4827 366.846 99.4827C365.975 99.4827 365.299 99.0537 365.065 98.3907L364.337 98.8197C364.662 99.6517 365.546 100.315 366.846 100.315C368.237 100.315 369.199 99.5477 369.199 98.4427C369.199 96.0507 365.403 96.9737 365.403 95.3617ZM373.754 91.7347V90.9027C371.999 90.7727 371.024 91.7087 371.024 93.3987V93.6587H369.919V94.4907H371.024V100.159H371.882V94.4907H373.754V93.6587H371.882V93.3987C371.882 92.1507 372.493 91.6307 373.754 91.7347ZM377.277 93.5027C375.262 93.5027 373.884 94.9977 373.884 96.9087C373.884 98.8717 375.288 100.315 377.342 100.315C378.655 100.315 379.656 99.7037 380.202 98.8197L379.448 98.3777C379.097 99.0017 378.382 99.4827 377.355 99.4827C375.977 99.4827 374.95 98.6637 374.768 97.3377H380.475C380.488 97.2077 380.501 97.0647 380.501 96.9347C380.501 95.1537 379.266 93.5027 377.277 93.5027ZM377.277 94.3347C378.395 94.3347 379.435 95.0757 379.617 96.5057H374.768C374.937 95.2317 375.912 94.3347 377.277 94.3347ZM382.724 94.7377V93.6587H381.866V100.159H382.724V96.5447C382.724 94.9327 383.738 94.3867 384.778 94.3867V93.5547C383.946 93.5547 383.179 93.8277 382.724 94.7377Z" fill="#071050"/>
<path d="M193.507 71.096H187.557V72.847H191.535C191.178 74.445 189.852 75.567 187.693 75.567C185.024 75.567 183.29 73.714 183.29 71.317C183.29 68.886 185.058 67.033 187.574 67.033C189.138 67.033 190.464 67.815 191.076 68.92L192.759 67.951C191.756 66.268 189.835 65.129 187.574 65.129C184.004 65.129 181.335 67.883 181.335 71.3C181.335 74.717 183.97 77.471 187.676 77.471C191.161 77.471 193.507 75.159 193.507 71.912V71.096ZM196.621 73.782H203.387C203.421 73.544 203.455 73.272 203.455 73.017C203.455 70.569 201.721 68.529 199.188 68.529C196.519 68.529 194.7 70.484 194.7 73C194.7 75.55 196.519 77.471 199.324 77.471C200.99 77.471 202.265 76.774 203.047 75.618L201.534 74.734C201.126 75.329 200.361 75.788 199.341 75.788C197.981 75.788 196.91 75.108 196.621 73.782ZM196.604 72.286C196.859 71.011 197.794 70.195 199.171 70.195C200.276 70.195 201.347 70.824 201.602 72.286H196.604ZM209.548 70.518V68.75H207.44V66.37L205.604 66.914V68.75H204.04V70.518H205.604V74.598C205.604 76.808 206.726 77.59 209.548 77.25V75.601C208.154 75.669 207.44 75.686 207.44 74.598V70.518H209.548ZM217.824 65.35L214.696 66.455L215.172 68.121L217.569 67.441V77.25H219.524V65.35H217.824ZM226.155 77.471C229.147 77.471 230.83 74.972 230.83 71.3C230.83 67.628 229.147 65.129 226.155 65.129C223.163 65.129 221.48 67.628 221.48 71.3C221.48 74.972 223.163 77.471 226.155 77.471ZM226.155 75.567C224.404 75.567 223.435 74.037 223.435 71.3C223.435 68.563 224.404 67.033 226.155 67.033C227.923 67.033 228.875 68.563 228.875 71.3C228.875 74.037 227.923 75.567 226.155 75.567ZM234.814 70.569C236.412 70.569 237.585 69.345 237.585 67.849C237.585 66.319 236.395 65.129 234.814 65.129C233.216 65.129 232.026 66.336 232.026 67.849C232.026 69.345 233.216 70.569 234.814 70.569ZM234.797 69.073C234.083 69.073 233.59 68.529 233.59 67.849C233.59 67.152 234.083 66.608 234.797 66.608C235.528 66.608 236.021 67.152 236.021 67.849C236.021 68.512 235.528 69.073 234.797 69.073ZM233.029 75.499L233.947 76.043L241.784 67.305L240.866 66.778L233.029 75.499ZM240.254 77.454C241.835 77.454 243.025 76.23 243.025 74.734C243.025 73.221 241.835 72.014 240.254 72.014C238.656 72.014 237.466 73.221 237.466 74.734C237.466 76.23 238.656 77.454 240.254 77.454ZM240.237 75.958C239.523 75.958 239.03 75.414 239.03 74.734C239.03 74.037 239.523 73.493 240.237 73.493C240.968 73.493 241.461 74.037 241.461 74.734C241.461 75.397 240.968 75.958 240.237 75.958ZM254.892 77.471C258.343 77.471 261.063 74.751 261.063 71.3C261.063 67.849 258.343 65.129 254.892 65.129C251.458 65.129 248.721 67.849 248.721 71.3C248.721 74.751 251.458 77.471 254.892 77.471ZM254.892 75.567C252.512 75.567 250.676 73.748 250.676 71.3C250.676 68.852 252.512 67.033 254.892 67.033C257.272 67.033 259.108 68.852 259.108 71.3C259.108 73.748 257.272 75.567 254.892 75.567ZM271.856 66.727V64.959C269.306 64.789 268.014 66.115 268.014 68.41V68.75H265.175V68.58C265.175 67.271 265.889 66.778 267.181 66.897V65.129C264.631 64.959 263.339 66.285 263.339 68.58V68.75H262.047V70.518H263.339V77.25H265.175V70.518H268.014V77.25H269.85V70.518H271.856V68.75H269.85V68.41C269.85 67.101 270.564 66.608 271.856 66.727ZM281.183 77.471C283.682 77.471 285.671 75.516 285.671 73C285.671 70.467 283.682 68.529 281.183 68.529C278.701 68.529 276.695 70.467 276.695 73C276.695 75.516 278.701 77.471 281.183 77.471ZM281.183 75.686C279.687 75.686 278.531 74.547 278.531 73C278.531 71.453 279.687 70.314 281.183 70.314C282.679 70.314 283.835 71.453 283.835 73C283.835 74.547 282.679 75.686 281.183 75.686ZM291.802 68.529C290.646 68.529 289.728 68.954 289.167 69.838V68.75H287.331V77.25H289.167V72.694C289.167 70.96 290.119 70.246 291.326 70.246C292.482 70.246 293.23 70.926 293.23 72.218V77.25H295.066V72.031C295.066 69.821 293.706 68.529 291.802 68.529ZM308.025 68.75V69.957C307.379 69.073 306.376 68.529 305.05 68.529C302.738 68.529 300.817 70.467 300.817 73C300.817 75.516 302.738 77.471 305.05 77.471C306.376 77.471 307.379 76.927 308.025 76.026V77.25H309.861V68.75H308.025ZM305.339 75.72C303.809 75.72 302.653 74.581 302.653 73C302.653 71.419 303.809 70.28 305.339 70.28C306.869 70.28 308.025 71.419 308.025 73C308.025 74.581 306.869 75.72 305.339 75.72ZM323.153 77.25H325.295L322.592 72.626C323.986 72.065 324.955 70.705 324.955 69.175C324.955 67.05 323.255 65.35 321.13 65.35H316.37V77.25H318.325V72.915H320.637L323.153 77.25ZM318.325 67.186H321.13C322.167 67.186 323 68.053 323 69.175C323 70.28 322.167 71.164 321.13 71.164H318.325V67.186ZM327.673 73.782H334.439C334.473 73.544 334.507 73.272 334.507 73.017C334.507 70.569 332.773 68.529 330.24 68.529C327.571 68.529 325.752 70.484 325.752 73C325.752 75.55 327.571 77.471 330.376 77.471C332.042 77.471 333.317 76.774 334.099 75.618L332.586 74.734C332.178 75.329 331.413 75.788 330.393 75.788C329.033 75.788 327.962 75.108 327.673 73.782ZM327.656 72.286C327.911 71.011 328.846 70.195 330.223 70.195C331.328 70.195 332.399 70.824 332.654 72.286H327.656ZM340.311 66.897V65.129C337.761 64.959 336.469 66.285 336.469 68.58V68.75H335.177V70.518H336.469V77.25H338.305V70.518H340.311V68.75H338.305V68.58C338.305 67.271 339.019 66.778 340.311 66.897ZM342.432 73.782H349.198C349.232 73.544 349.266 73.272 349.266 73.017C349.266 70.569 347.532 68.529 344.999 68.529C342.33 68.529 340.511 70.484 340.511 73C340.511 75.55 342.33 77.471 345.135 77.471C346.801 77.471 348.076 76.774 348.858 75.618L347.345 74.734C346.937 75.329 346.172 75.788 345.152 75.788C343.792 75.788 342.721 75.108 342.432 73.782ZM342.415 72.286C342.67 71.011 343.605 70.195 344.982 70.195C346.087 70.195 347.158 70.824 347.413 72.286H342.415ZM352.718 70.178V68.75H350.882V77.25H352.718V72.966C352.718 71.062 354.129 70.501 355.336 70.586V68.597C354.265 68.597 353.228 69.022 352.718 70.178ZM358.528 70.178V68.75H356.692V77.25H358.528V72.966C358.528 71.062 359.939 70.501 361.146 70.586V68.597C360.075 68.597 359.038 69.022 358.528 70.178ZM368.836 68.75V69.957C368.19 69.073 367.187 68.529 365.861 68.529C363.549 68.529 361.628 70.467 361.628 73C361.628 75.516 363.549 77.471 365.861 77.471C367.187 77.471 368.19 76.927 368.836 76.026V77.25H370.672V68.75H368.836ZM366.15 75.72C364.62 75.72 363.464 74.581 363.464 73C363.464 71.419 364.62 70.28 366.15 70.28C367.68 70.28 368.836 71.419 368.836 73C368.836 74.581 367.68 75.72 366.15 75.72ZM372.812 77.25H374.648V64.84H372.812V77.25Z" fill="#071050"/>
</svg>
