<svg width="558" height="161" viewBox="0 0 558 161" fill="none" xmlns="http://www.w3.org/2000/svg">
<rect width="558" height="161" rx="12" fill="#080F50"/>
<path fill-rule="evenodd" clip-rule="evenodd" d="M94.9433 0L60.6213 94.0145C53.2093 114.318 32.1698 124.197 13.6284 116.081C8.70914 113.927 4.28597 110.618 0.668715 106.392L0 105.589V36.3481C0 23.709 1.2018 19.1258 3.45852 14.5052C5.71524 9.88457 9.02688 6.25827 13.2466 3.78713L13.9136 3.40657C17.9272 1.1811 22.2593 0 33.1941 0H94.9433ZM391.256 130.536L504.699 0H430.827L367.482 112.802C363.669 119.593 365.427 128.48 371.462 132.92C377.71 137.517 386.063 136.511 391.256 130.536ZM352.291 21.4977C363.888 25.5666 370.286 39.1908 366.581 51.9283C365.799 54.6173 364.595 57.1354 363.023 59.3688L293.658 157.925C292.781 159.172 292.418 159.567 291.957 159.947C291.496 160.328 291.009 160.591 290.453 160.759C289.944 160.913 289.476 160.987 288.296 160.998L86.6166 161L295.077 28.3117C312.418 17.2736 333.199 14.7987 352.291 21.4977ZM509.818 76.1308L510.549 76.1802C516.982 76.658 522.957 78.285 536.999 85.1928L557.999 95.594V132.856L557.992 134.35C557.9 143.016 556.98 146.379 555.33 149.769C553.588 153.346 551.031 156.154 547.774 158.068L547.259 158.362C544.161 160.085 540.817 161 532.376 161H411.42L467.104 99.8012C478.862 86.8788 483.958 83.1249 490.225 80.0694C496.492 77.0138 502.972 75.7113 509.818 76.1308ZM149.192 44.8156L210.766 0H150.745L128.983 37.074C128.6 37.7265 128.316 38.4432 128.143 39.1959C127.263 43.0223 129.373 46.9079 132.857 47.8747C138.451 49.4272 144.382 48.3165 149.192 44.8156Z" fill="#FAFAFA" fill-opacity="0.1"/>
</svg>
