<svg width="25" height="24" viewBox="0 0 25 24" fill="none" xmlns="http://www.w3.org/2000/svg">
<path fill-rule="evenodd" clip-rule="evenodd" d="M3.92091 0H20.902C22.8322 0 24.4116 1.59053 24.4116 3.5346V20.4654C24.4116 22.4095 22.8325 24 20.9023 24H3.92091C1.99076 24 0.411621 22.4095 0.411621 20.4654V3.5346C0.411621 1.59053 1.99076 0 3.92091 0ZM8.39839 11.8216C7.71484 11.1706 6.60733 11.1706 5.92378 11.8216C5.24023 12.4726 5.24023 13.5272 5.92401 14.1783L9.42401 17.5117C9.76572 17.8372 10.2136 18 10.6613 18C11.1089 18 11.5567 17.8372 11.8985 17.5117L18.8985 10.845C19.582 10.194 19.582 9.13925 18.8985 8.48825C18.2149 7.83725 17.1074 7.83725 16.4239 8.48825L10.6611 13.9766L8.39839 11.8216Z" fill="white"/>
</svg>
