<svg width="70" height="70" viewBox="0 0 70 70" fill="none" xmlns="http://www.w3.org/2000/svg">
<path opacity="0.1" fill-rule="evenodd" clip-rule="evenodd" d="M35 70C54.33 70 70 54.33 70 35C70 15.67 54.33 0 35 0C15.67 0 0 15.67 0 35C0 54.33 15.67 70 35 70Z" fill="#0094FF"/>
<path fill-rule="evenodd" clip-rule="evenodd" d="M24.8296 20.3638H46.442C48.8986 20.3638 50.9087 22.3881 50.9087 24.8623V46.4106C50.9087 48.8849 48.8989 50.9092 46.4424 50.9092H24.8296C22.3731 50.9092 20.3633 48.8849 20.3633 46.4106V24.8623C20.3633 22.3881 22.3731 20.3638 24.8296 20.3638ZM30.5284 35.4094C29.6585 34.5808 28.2489 34.5808 27.3789 35.4094C26.5089 36.2379 26.5089 37.5802 27.3792 38.4089L31.8337 42.6513C32.2687 43.0657 32.8387 43.2728 33.4084 43.2728C33.9782 43.2728 34.548 43.0657 34.9831 42.6513L43.8922 34.1665C44.7621 33.338 44.7621 31.9955 43.8922 31.167C43.0222 30.3384 41.6126 30.3384 40.7427 31.167L33.4083 38.1521L30.5284 35.4094Z" fill="#0094FF"/>
</svg>
