<svg width="95" height="95" viewBox="0 0 95 95" fill="none" xmlns="http://www.w3.org/2000/svg">
<path opacity="0.6" fill-rule="evenodd" clip-rule="evenodd" d="M47.5 95C73.7335 95 95 73.7335 95 47.5C95 21.2665 73.7335 0 47.5 0C21.2665 0 0 21.2665 0 47.5C0 73.7335 21.2665 95 47.5 95Z" fill="#E0F0FE"/>
<path fill-rule="evenodd" clip-rule="evenodd" d="M33.6972 27.6362H63.0283C66.3622 27.6362 69.0903 30.3835 69.0903 33.7414V62.9856C69.0903 66.3435 66.3627 69.0908 63.0288 69.0908H33.6972C30.3633 69.0908 27.6357 66.3435 27.6357 62.9856V33.7414C27.6357 30.3835 30.3633 27.6362 33.6972 27.6362ZM41.4314 48.0553C40.2508 46.9309 38.3378 46.9309 37.1571 48.0553C35.9764 49.1798 35.9764 51.0015 37.1575 52.1261L43.2029 57.8837C43.7932 58.446 44.5668 58.7271 45.34 58.7271C46.1132 58.7271 46.8866 58.446 47.4771 57.8837L59.568 46.3685C60.7486 45.2441 60.7486 43.4222 59.568 42.2978C58.3873 41.1733 56.4743 41.1733 55.2936 42.2978L45.3398 51.7776L41.4314 48.0553Z" fill="#071050"/>
</svg>
