<svg width="55" height="55" viewBox="0 0 55 55" fill="none" xmlns="http://www.w3.org/2000/svg">
<path opacity="0.1" fill-rule="evenodd" clip-rule="evenodd" d="M27.5 55C42.6878 55 55 42.6878 55 27.5C55 12.3122 42.6878 0 27.5 0C12.3122 0 0 12.3122 0 27.5C0 42.6878 12.3122 55 27.5 55Z" fill="#071050"/>
<path fill-rule="evenodd" clip-rule="evenodd" d="M19.5093 15.9999H36.4904C38.4206 15.9999 40 17.5904 40 19.5345V36.4653C40 38.4094 38.4209 39.9999 36.4907 39.9999H19.5093C17.5791 39.9999 16 38.4094 16 36.4653V19.5345C16 17.5904 17.5791 15.9999 19.5093 15.9999ZM30.6892 22.0549L33.6692 25.0749L31.5148 28.3993L30.6823 29.2449L28.6473 31.3131C28.2773 31.6831 27.6029 31.6037 27.3323 31.1481C27.1411 30.8306 27.2136 30.3812 27.5042 30.0906L29.7179 27.8768L30.0486 27.5462C30.1542 27.4337 30.1673 27.2549 30.0748 27.1231C30.0673 27.1166 30.0532 27.0969 30.0319 27.0673C29.8737 26.8471 29.3218 26.0789 28.2048 26.1318C27.5111 26.1712 26.8836 26.5543 26.5398 27.1624C26.5204 27.1956 26.5073 27.2349 26.5004 27.2681H24.8154C24.8154 27.2615 24.8137 27.255 24.812 27.2484L24.812 27.2484C24.8103 27.2418 24.8086 27.2353 24.8086 27.2287C23.7524 23.6095 27.4225 22.8039 29.601 22.3258C30.0421 22.2289 30.422 22.1456 30.6892 22.0549ZM34.7463 25.0812C34.8904 25.0812 34.9524 25.0165 35.1747 24.7846C35.2965 24.6574 35.4664 24.4801 35.7244 24.2356C35.8563 24.1037 35.8563 23.8987 35.7244 23.7662C34.2043 22.2672 33.318 21.3647 32.7844 20.8215L32.7843 20.8214C31.9897 20.0123 31.9776 20 31.8194 20C31.74 20 31.6544 20.0331 31.5882 20.0994C31.356 20.3465 31.185 20.5088 31.0612 20.6264C30.8395 20.8368 30.7688 20.9039 30.7688 21.0575C30.7688 21.2009 30.8477 21.2785 30.9216 21.3511C30.9472 21.3763 30.9722 21.4009 30.9932 21.4275C31.0582 21.4662 34.445 24.9181 34.5082 24.9825C34.5744 25.0419 34.6344 25.0612 34.7463 25.0812ZM28.9429 27.8124C28.9492 27.8187 27.0679 29.7249 27.0679 29.7249C26.9989 29.7939 26.9354 29.8689 26.8815 29.9437C26.9343 29.8687 26.9925 29.7941 27.0617 29.7249C26.9897 29.7968 26.9301 29.8728 26.8765 29.9506C26.8745 29.9535 26.8724 29.9564 26.8704 29.9593C26.226 30.9011 26.8717 32.1811 28.0179 32.1811C28.3992 32.1811 28.7617 32.0311 29.0304 31.7624L31.0117 29.7499V34.6874C31.0117 34.8624 30.8679 34.9999 30.6992 34.9999H22.5617C22.3867 34.9999 22.2492 34.8624 22.2492 34.6874V28.1249C22.2492 27.9499 22.3867 27.8124 22.5617 27.8124H28.9429ZM26.8765 29.9506C26.8747 29.9533 26.8729 29.956 26.871 29.9586C26.8745 29.9537 26.878 29.9487 26.8815 29.9437C26.8798 29.946 26.8782 29.9483 26.8765 29.9506Z" fill="#071050"/>
</svg>
