<svg width="24" height="24" viewBox="0 0 24 24" fill="none" xmlns="http://www.w3.org/2000/svg">
<path d="M21.743 11.8165L12.743 1.8165C12.364 1.3945 11.636 1.3945 11.257 1.8165L2.25698 11.8165C2.12744 11.9601 2.04241 12.1382 2.01223 12.3293C1.98205 12.5203 2.00802 12.716 2.08698 12.8925C2.24698 13.2535 2.60498 13.4855 2.99998 13.4855H4.99998V20.4855C4.99998 20.7507 5.10534 21.0051 5.29288 21.1926C5.48041 21.3801 5.73477 21.4855 5.99998 21.4855H8.99998C9.2652 21.4855 9.51955 21.3801 9.70709 21.1926C9.89463 21.0051 9.99998 20.7507 9.99998 20.4855V16.4855H14V20.4855C14 20.7507 14.1053 21.0051 14.2929 21.1926C14.4804 21.3801 14.7348 21.4855 15 21.4855H18C18.2652 21.4855 18.5196 21.3801 18.7071 21.1926C18.8946 21.0051 19 20.7507 19 20.4855V13.4855H21C21.1937 13.4863 21.3834 13.4308 21.546 13.3256C21.7087 13.2205 21.8372 13.0703 21.916 12.8934C21.9947 12.7165 22.0203 12.5204 21.9896 12.3292C21.9589 12.138 21.8732 11.9599 21.743 11.8165Z" fill="#24243B"/>
</svg>
