<svg width="1077" height="244" viewBox="0 0 1077 244" fill="none" xmlns="http://www.w3.org/2000/svg">
<path fill-rule="evenodd" clip-rule="evenodd" d="M245 -49L156.433 101.208C137.306 133.647 83.0138 149.431 35.1679 136.464C22.4738 133.023 11.0599 127.736 1.72561 120.984L0 119.701V9.07389C0 -11.1197 3.10122 -18.4423 8.92466 -25.8248C14.7481 -33.2073 23.2938 -39.0011 34.1827 -42.9492L35.904 -43.5573C46.261 -47.1129 57.4399 -49 85.6571 -49H245ZM755.167 194.476L974.123 -14H831.543L709.28 166.154C701.92 176.999 705.313 191.192 716.961 198.284C729.021 205.626 745.144 204.019 755.167 194.476ZM985.415 107.666L984.005 107.587C970.79 106.917 958.285 108.997 946.188 113.877C934.091 118.757 924.256 124.752 901.562 145.391L794.086 243.13H1027.54C1043.84 243.13 1050.29 241.669 1056.27 238.917L1057.26 238.446C1063.55 235.391 1068.48 230.906 1071.85 225.192C1075.03 219.779 1076.81 214.407 1076.99 200.567L1077 198.181V138.671L1036.47 122.06C1009.36 111.027 997.831 108.429 985.415 107.666ZM315.013 59.5741L433.857 -12H318.011L276.006 47.2101C275.267 48.2522 274.72 49.3968 274.386 50.5989C272.687 56.71 276.76 62.9156 283.484 64.4596C294.282 66.9391 305.73 65.1652 315.013 59.5741Z" fill="#E0F0FE"/>
</svg>
