<svg width="30" height="17" viewBox="0 0 30 17" fill="none" xmlns="http://www.w3.org/2000/svg">
<path d="M20 13.3322C19.0781 13.3322 18.3333 14.077 18.3333 14.9989C18.3333 15.9207 19.0781 16.6655 20 16.6655L28.3333 16.6655C29.2552 16.6655 30 15.9207 30 14.9989L30 6.66553C30 5.74366 29.2552 4.99887 28.3333 4.99887C27.4115 4.99887 26.6667 5.74366 26.6667 6.66553L26.6667 10.9728L17.8438 2.15511C17.1927 1.50407 16.1406 1.50407 15.4896 2.15511L9.95313 7.63949L2.84532 0.488446C2.19427 -0.162595 1.13907 -0.162596 0.488128 0.488445C-0.162706 1.13949 -0.162706 2.19157 0.488127 2.84261L8.82292 11.1759C9.47396 11.827 10.526 11.827 11.1771 11.1759L16.6667 5.69157L24.3073 13.3791L20 13.3322Z" fill="#FF0404"/>
</svg>
