<svg width="24" height="24" viewBox="0 0 24 24" fill="none" xmlns="http://www.w3.org/2000/svg">
<path d="M12 2C10.0222 2 8.08879 2.58649 6.4443 3.6853C4.79981 4.78412 3.51809 6.3459 2.76121 8.17317C2.00433 10.0004 1.8063 12.0111 2.19215 13.9509C2.578 15.8907 3.53041 17.6725 4.92894 19.0711C6.32746 20.4696 8.10929 21.422 10.0491 21.8079C11.9889 22.1937 13.9996 21.9957 15.8268 21.2388C17.6541 20.4819 19.2159 19.2002 20.3147 17.5557C21.4135 15.9112 22 13.9778 22 12C22 9.34784 20.9464 6.8043 19.0711 4.92893C17.1957 3.05357 14.6522 2 12 2V2ZM8.5 8.31C8.79668 8.31 9.08669 8.39797 9.33336 8.5628C9.58003 8.72762 9.77229 8.96189 9.88582 9.23597C9.99936 9.51006 10.0291 9.81166 9.97118 10.1026C9.9133 10.3936 9.77044 10.6609 9.56066 10.8707C9.35089 11.0804 9.08361 11.2233 8.79264 11.2812C8.50167 11.3391 8.20007 11.3094 7.92598 11.1958C7.65189 11.0823 7.41762 10.89 7.2528 10.6434C7.08798 10.3967 7 10.1067 7 9.81C7 9.41218 7.15804 9.03064 7.43934 8.74934C7.72065 8.46804 8.10218 8.31 8.5 8.31ZM16.46 15.99C15.9692 16.7224 15.3055 17.3226 14.5276 17.7377C13.7498 18.1528 12.8817 18.3699 12 18.3699C11.1183 18.3699 10.2502 18.1528 9.47237 17.7377C8.69452 17.3226 8.03086 16.7224 7.54 15.99C7.46104 15.8736 7.41526 15.7378 7.40757 15.5974C7.39987 15.4569 7.43056 15.317 7.49634 15.1926C7.56211 15.0683 7.66049 14.9642 7.78093 14.8915C7.90137 14.8188 8.03933 14.7803 8.18 14.78H15.82C15.9607 14.7803 16.0986 14.8188 16.2191 14.8915C16.3395 14.9642 16.4379 15.0683 16.5037 15.1926C16.5694 15.317 16.6001 15.4569 16.5924 15.5974C16.5847 15.7378 16.539 15.8736 16.46 15.99ZM15.5 11.31C15.2033 11.31 14.9133 11.222 14.6666 11.0572C14.42 10.8924 14.2277 10.6581 14.1142 10.384C14.0007 10.1099 13.9709 9.80834 14.0288 9.51736C14.0867 9.22639 14.2296 8.95912 14.4393 8.74934C14.6491 8.53956 14.9164 8.3967 15.2074 8.33882C15.4983 8.28094 15.7999 8.31065 16.074 8.42418C16.3481 8.53771 16.5824 8.72997 16.7472 8.97664C16.912 9.22332 17 9.51333 17 9.81C17 10.007 16.9612 10.202 16.8858 10.384C16.8104 10.566 16.7 10.7314 16.5607 10.8707C16.4214 11.0099 16.256 11.1204 16.074 11.1958C15.892 11.2712 15.697 11.31 15.5 11.31Z" fill="#24243B"/>
</svg>
