<svg width="24" height="24" viewBox="0 0 24 24" fill="none" xmlns="http://www.w3.org/2000/svg">
<path d="M8.03286 22.0001L3.03286 3.33311C2.97581 3.17987 2.95764 3.01486 2.97998 2.85288C3.00232 2.69091 3.06447 2.53702 3.16088 2.40495C3.25728 2.27288 3.38492 2.16676 3.53238 2.09611C3.67985 2.02546 3.84252 1.99247 4.00586 2.0001H14.0059C14.2945 2.01497 14.5714 2.11922 14.7982 2.29838C15.025 2.47754 15.1905 2.72274 15.2719 3.0001L15.7199 4.66813H17.3939C17.6827 4.6828 17.9598 4.78687 18.1868 4.96604C18.4138 5.14522 18.5795 5.39061 18.6609 5.66813L20.9809 14.3341C21.0238 14.4494 21.0374 14.5736 21.0204 14.6954C21.0035 14.8173 20.9565 14.933 20.8837 15.0321C20.8109 15.1313 20.7146 15.2109 20.6034 15.2636C20.4923 15.3163 20.3697 15.3405 20.2469 15.3341H11.5799C11.2912 15.3194 11.0142 15.2152 10.7874 15.0361C10.5605 14.8569 10.395 14.6115 10.3139 14.3341C10.3043 14.2982 10.2967 14.2618 10.2909 14.2251L9.51386 11.3351H6.84086L9.69986 22.0001H8.03286ZM17.7799 12.3331C17.7892 12.3678 17.7965 12.4011 17.8019 12.4331C17.7965 12.3991 17.7892 12.3658 17.7799 12.3331Z" fill="#24243B"/>
</svg>
