<svg width="24" height="24" viewBox="0 0 24 24" fill="none" xmlns="http://www.w3.org/2000/svg">
<path d="M9.5999 10.8001C10.5547 10.8001 11.4704 10.4208 12.1455 9.74568C12.8206 9.07055 13.1999 8.15488 13.1999 7.2001C13.1999 6.24532 12.8206 5.32964 12.1455 4.65451C11.4704 3.97938 10.5547 3.6001 9.5999 3.6001C8.64512 3.6001 7.72945 3.97938 7.05432 4.65451C6.37919 5.32964 5.9999 6.24532 5.9999 7.2001C5.9999 8.15488 6.37919 9.07055 7.05432 9.74568C7.72945 10.4208 8.64512 10.8001 9.5999 10.8001ZM9.5999 13.2001C11.5095 13.2001 13.3408 13.9587 14.6911 15.3089C16.0413 16.6592 16.7999 18.4905 16.7999 20.4001H2.3999C2.3999 18.4905 3.15847 16.6592 4.50873 15.3089C5.85899 13.9587 7.69034 13.2001 9.5999 13.2001Z" fill="#24243B"/>
<path d="M15 11.1559L16.6667 12.8226L20 9.48926" stroke="#24243B" stroke-width="2.4" stroke-linecap="round" stroke-linejoin="round"/>
</svg>
