<svg width="95" height="95" viewBox="0 0 95 95" fill="none" xmlns="http://www.w3.org/2000/svg">
<path opacity="0.1" fill-rule="evenodd" clip-rule="evenodd" d="M47.5 95C73.7335 95 95 73.7335 95 47.5C95 21.2665 73.7335 0 47.5 0C21.2665 0 0 21.2665 0 47.5C0 73.7335 21.2665 95 47.5 95Z" fill="white"/>
<path fill-rule="evenodd" clip-rule="evenodd" d="M33.6982 27.6362H63.0293C66.3632 27.6362 69.0913 30.3835 69.0913 33.7414V62.9856C69.0913 66.3435 66.3637 69.0908 63.0298 69.0908H33.6982C30.3643 69.0908 27.6367 66.3435 27.6367 62.9856V33.7414C27.6367 30.3835 30.3643 27.6362 33.6982 27.6362ZM53.0083 38.0948L58.1556 43.3112L54.4344 49.0533L52.9965 50.5139L49.4815 54.0861C48.8424 54.7252 47.6776 54.5881 47.2101 53.8011C46.8798 53.2527 47.005 52.4765 47.507 51.9745L51.3307 48.1508L51.9018 47.5797C52.0843 47.3854 52.1069 47.0766 51.9472 46.8488C51.9342 46.8376 51.9098 46.8036 51.8731 46.7525C51.5998 46.3721 50.6464 45.0453 48.7172 45.1367C47.5189 45.2047 46.435 45.8665 45.8412 46.9169C45.8078 46.9741 45.7851 47.0421 45.7732 47.0993H42.8628C42.8628 47.088 42.8598 47.0766 42.8568 47.0653C42.8539 47.054 42.8509 47.0426 42.8509 47.0313C41.0266 40.78 47.3659 39.3885 51.1288 38.5626C51.8906 38.3953 52.5469 38.2513 53.0083 38.0948ZM60.016 43.322C60.265 43.322 60.3721 43.2103 60.756 42.8096C60.9664 42.59 61.2599 42.2837 61.7055 41.8614C61.9333 41.6336 61.9333 41.2795 61.7055 41.0506C59.0797 38.4612 57.5487 36.9024 56.6272 35.9641C55.2546 34.5666 55.2337 34.5453 54.9605 34.5453C54.8234 34.5453 54.6755 34.6025 54.5611 34.717C54.1602 35.1438 53.8648 35.4242 53.6508 35.6273C53.268 35.9907 53.1458 36.1067 53.1458 36.3719C53.1458 36.6196 53.2821 36.7536 53.4097 36.8791C53.454 36.9226 53.4972 36.9651 53.5334 37.011C53.6457 37.0779 59.4957 43.0403 59.6047 43.1514C59.7192 43.254 59.8228 43.2875 60.016 43.322ZM49.992 48.0395C50.0028 48.0503 46.7534 51.3429 46.7534 51.3429C46.6343 51.462 46.5246 51.5915 46.4314 51.7209C46.5227 51.5913 46.6231 51.4624 46.7426 51.3429C46.6184 51.4671 46.5154 51.5984 46.4228 51.7328C46.4193 51.7378 46.4158 51.7428 46.4123 51.7477C45.2993 53.3746 46.4144 55.5855 48.3943 55.5855C49.0528 55.5855 49.679 55.3264 50.1432 54.8622L53.5653 51.3861V59.9145C53.5653 60.2168 53.317 60.4543 53.0256 60.4543H38.9699C38.6676 60.4543 38.4301 60.2168 38.4301 59.9145V48.5793C38.4301 48.277 38.6676 48.0395 38.9699 48.0395H49.992ZM46.4228 51.7328C46.4197 51.7374 46.4165 51.742 46.4133 51.7466C46.4193 51.738 46.4253 51.7294 46.4314 51.7209C46.4285 51.7248 46.4257 51.7288 46.4228 51.7328Z" fill="white"/>
</svg>
